<?xml version="1.0" encoding="UTF-8"?>
<svg viewBox="0 0 72 72" fill="none" xmlns="http://www.w3.org/2000/svg">
  <!-- Durosport S1 Court Cross - R1 Balanced (Primary) -->
  <!-- Deep Blue D outline -->
  <path d="M6 6h30c16.569 0 30 13.431 30 30s-13.431 30-30 30H6V6z" fill="#003380"/>
  <!-- Sport Green court surface -->
  <path d="M12 12h24c13.255 0 24 10.745 24 24s-10.745 24-24 24H12V12z" fill="#00875A"/>
  <!-- Horizontal court line -->
  <rect x="12" y="33.5" width="38" height="4" rx="1" fill="rgba(255,255,255,0.95)"/>
  <!-- Vertical court line -->
  <rect x="28" y="12" width="4" height="48" rx="1" fill="rgba(255,255,255,0.95)"/>
  <!-- Top corner arc -->
  <path d="M12 12 L12 21 A9 9 0 0 0 21 12 Z" fill="rgba(255,255,255,0.25)"/>
  <!-- Bottom corner arc -->
  <path d="M12 60 L12 51 A9 9 0 0 1 21 60 Z" fill="rgba(255,255,255,0.25)"/>
  <!-- Center circle -->
  <circle cx="30" cy="35.5" r="6" stroke="rgba(255,255,255,0.85)" stroke-width="2.5" fill="none"/>
</svg>
